<svg width="90" height="58" viewBox="0 0 90 58" fill="none" xmlns="http://www.w3.org/2000/svg">
<path d="M41.166 39.8249C45.0014 37.2393 47.9132 33.4724 49.4709 29.0814C51.0287 24.6904 51.1496 19.9083 49.8158 15.4423C48.482 10.9763 45.7643 7.06346 42.0647 4.28248C38.365 1.50151 33.8798 0 29.2722 0C24.6646 0 20.1794 1.50151 16.4797 4.28248C12.7801 7.06346 10.0624 10.9763 8.7286 15.4423C7.39482 19.9083 7.51573 24.6904 9.07346 29.0814C10.6312 33.4724 13.543 37.2393 17.3784 39.8249C10.4406 42.4142 4.51557 47.2058 0.487388 53.4845C0.275681 53.8031 0.128629 54.1612 0.0547794 54.5379C-0.0190697 54.9146 -0.0182429 55.3024 0.0572118 55.6787C0.132667 56.0551 0.281244 56.4125 0.494308 56.7302C0.707372 57.0479 0.980672 57.3195 1.29832 57.5293C1.61597 57.7391 1.97164 57.8829 2.34464 57.9523C2.71764 58.0217 3.10055 58.0153 3.47109 57.9335C3.84164 57.8517 4.19243 57.6962 4.50309 57.4759C4.81375 57.2556 5.07807 56.975 5.28068 56.6504C7.87904 52.6035 11.4345 49.278 15.6243 46.9759C19.8141 44.6738 24.5054 43.468 29.2722 43.468C34.039 43.468 38.7303 44.6738 42.9201 46.9759C47.1099 49.278 50.6654 52.6035 53.2637 56.6504C53.6834 57.2821 54.3318 57.7211 55.0686 57.8726C55.8055 58.0241 56.5716 57.8758 57.2014 57.4599C57.8311 57.044 58.2739 56.3938 58.434 55.6498C58.5941 54.9059 58.4587 54.1281 58.057 53.4845C54.0288 47.2058 48.1038 42.4142 41.166 39.8249ZM13.533 21.7425C13.533 18.5902 14.4561 15.5088 16.1856 12.8878C17.915 10.2668 20.3731 8.22399 23.2491 7.01768C26.125 5.81136 29.2897 5.49574 32.3428 6.11071C35.3959 6.72568 38.2003 8.24363 40.4015 10.4726C42.6026 12.7016 44.1017 15.5415 44.709 18.6331C45.3163 21.7248 45.0046 24.9294 43.8133 27.8417C42.622 30.754 40.6047 33.2432 38.0164 34.9945C35.4281 36.7458 32.3851 37.6805 29.2722 37.6805C25.0994 37.6757 21.0988 35.995 18.1481 33.0071C15.1975 30.0192 13.5378 25.968 13.533 21.7425ZM88.7019 57.4944C88.0663 57.9141 87.292 58.061 86.5494 57.9027C85.8068 57.7445 85.1567 57.294 84.7421 56.6504C82.1468 52.6011 78.5918 49.2742 74.4012 46.973C70.2105 44.6719 65.5177 43.4697 60.7506 43.4762C59.9916 43.4762 59.2637 43.1709 58.7271 42.6274C58.1904 42.084 57.8889 41.3469 57.8889 40.5783C57.8889 39.8098 58.1904 39.0727 58.7271 38.5293C59.2637 37.9858 59.9916 37.6805 60.7506 37.6805C63.0684 37.6783 65.3572 37.1577 67.4533 36.1559C69.5494 35.1542 71.4012 33.696 72.8763 31.8855C74.3513 30.075 75.4133 27.957 75.9863 25.6827C76.5594 23.4084 76.6293 21.0341 76.1911 18.7293C75.7529 16.4245 74.8174 14.2461 73.4514 12.3499C72.0855 10.4537 70.3228 8.88633 68.2893 7.75989C66.2558 6.63345 64.0018 5.97572 61.6882 5.83368C59.3746 5.69164 57.0586 6.06881 54.9056 6.93824C54.5546 7.0919 54.1767 7.17276 53.7943 7.17603C53.4119 7.17931 53.0327 7.10493 52.6791 6.95729C52.3256 6.80965 52.0048 6.59176 51.7359 6.31647C51.4669 6.04119 51.2551 5.7141 51.1131 5.35454C50.9711 4.99498 50.9016 4.61023 50.9089 4.22304C50.9162 3.83585 51.0001 3.45407 51.1556 3.10026C51.311 2.74644 51.535 2.42777 51.8141 2.16308C52.0933 1.89838 52.422 1.69303 52.7808 1.55915C57.7081 -0.430742 63.1886 -0.50235 68.1649 1.35814C73.1413 3.21863 77.2609 6.8794 79.7291 11.6342C82.1974 16.389 82.8392 21.901 81.5309 27.1068C80.2226 32.3126 77.0569 36.8433 72.6444 39.8249C79.5822 42.4142 85.5072 47.2058 89.5354 53.4845C89.9499 54.1282 90.0949 54.9122 89.9386 55.6642C89.7823 56.4162 89.3375 57.0745 88.7019 57.4944Z" fill="#89A831"/>
</svg>
