<svg width="60" height="60" viewBox="0 0 60 60" fill="none" xmlns="http://www.w3.org/2000/svg">
<path d="M41.3167 25.2369C41.3167 25.8456 41.0749 26.4295 40.6444 26.8599C40.214 27.2904 39.6301 27.5322 39.0214 27.5322H20.6584C20.0496 27.5322 19.4658 27.2904 19.0353 26.8599C18.6048 26.4295 18.363 25.8456 18.363 25.2369C18.363 24.6281 18.6048 24.0443 19.0353 23.6138C19.4658 23.1833 20.0496 22.9415 20.6584 22.9415H39.0214C39.6301 22.9415 40.214 23.1833 40.6444 23.6138C41.0749 24.0443 41.3167 24.6281 41.3167 25.2369ZM39.0214 32.123H20.6584C20.0496 32.123 19.4658 32.3648 19.0353 32.7953C18.6048 33.2258 18.363 33.8096 18.363 34.4184C18.363 35.0271 18.6048 35.611 19.0353 36.0414C19.4658 36.4719 20.0496 36.7137 20.6584 36.7137H39.0214C39.6301 36.7137 40.214 36.4719 40.6444 36.0414C41.0749 35.611 41.3167 35.0271 41.3167 34.4184C41.3167 33.8096 41.0749 33.2258 40.6444 32.7953C40.214 32.3648 39.6301 32.123 39.0214 32.123ZM59.6797 29.8276C59.6808 34.9794 58.3481 40.0437 55.8114 44.5276C53.2746 49.0115 49.6201 52.7623 45.2037 55.4148C40.7872 58.0673 35.7593 59.5312 30.6092 59.6641C25.4591 59.7969 20.3624 58.5941 15.8151 56.1728L6.04544 59.4293C5.23657 59.6991 4.36855 59.7382 3.53868 59.5424C2.70881 59.3465 1.94988 58.9234 1.34696 58.3205C0.744031 57.7176 0.320935 56.9587 0.125091 56.1288C-0.0707535 55.2989 -0.0316064 54.4309 0.238144 53.622L3.49471 43.8524C1.36617 39.8505 0.177309 35.4162 0.0183554 30.8863C-0.140598 26.3563 0.734536 21.8497 2.57733 17.7084C4.42012 13.5672 7.18214 9.90018 10.6537 6.98576C14.1253 4.07134 18.2153 1.9861 22.6131 0.888336C27.0109 -0.209431 31.601 -0.29088 36.035 0.650172C40.469 1.59122 44.6303 3.53004 48.2031 6.31946C51.7759 9.10888 54.6663 12.6756 56.6548 16.7489C58.6434 20.8221 59.6779 25.2949 59.6797 29.8276ZM55.089 29.8276C55.0879 25.9545 54.1958 22.1336 52.4817 18.6605C50.7676 15.1873 48.2775 12.1551 45.204 9.79828C42.1305 7.4415 38.556 5.82338 34.7571 5.06911C30.9581 4.31483 27.0366 4.44463 23.2958 5.44845C19.5551 6.45227 16.0954 8.3032 13.1845 10.8581C10.2736 13.4129 7.98939 16.6032 6.50871 20.1821C5.02803 23.7609 4.39053 27.6325 4.64553 31.4972C4.90054 35.3619 6.04121 39.1161 7.97929 42.4694C8.14196 42.7509 8.24296 43.0638 8.2756 43.3873C8.30825 43.7108 8.2718 44.0375 8.16866 44.3459L4.59075 55.0767L15.3216 51.4988C15.5553 51.4191 15.8006 51.3784 16.0475 51.3783C16.4507 51.379 16.8465 51.4859 17.1952 51.6882C21.0337 53.909 25.3893 55.0797 29.8239 55.0825C34.2585 55.0853 38.6156 53.9201 42.4569 51.7041C46.2981 49.4882 49.488 46.2996 51.7055 42.4592C53.923 38.6189 55.09 34.2622 55.089 29.8276Z" fill="#89A831"/>
</svg>
