<svg width="56" height="62" viewBox="0 0 56 62" fill="none" xmlns="http://www.w3.org/2000/svg">
<path d="M50.4982 20.6584H41.3167V13.7722C41.3167 10.1196 39.8657 6.61659 37.2829 4.0338C34.7001 1.451 31.1971 0 27.5445 0C23.8919 0 20.3888 1.451 17.806 4.0338C15.2232 6.61659 13.7722 10.1196 13.7722 13.7722V20.6584H4.59075C3.37321 20.6584 2.20553 21.142 1.3446 22.003C0.483666 22.8639 0 24.0316 0 25.2491V57.3843C0 58.6019 0.483666 59.7696 1.3446 60.6305C2.20553 61.4914 3.37321 61.9751 4.59075 61.9751H50.4982C51.7158 61.9751 52.8834 61.4914 53.7444 60.6305C54.6053 59.7696 55.089 58.6019 55.089 57.3843V25.2491C55.089 24.0316 54.6053 22.8639 53.7444 22.003C52.8834 21.142 51.7158 20.6584 50.4982 20.6584ZM18.363 13.7722C18.363 11.3372 19.3303 9.00181 21.0522 7.27994C22.7741 5.55808 25.1094 4.59075 27.5445 4.59075C29.9796 4.59075 32.3149 5.55808 34.0368 7.27994C35.7586 9.00181 36.726 11.3372 36.726 13.7722V20.6584H18.363V13.7722ZM50.4982 57.3843H4.59075V25.2491H50.4982V57.3843ZM30.9875 41.3167C30.9875 41.9977 30.7856 42.6634 30.4073 43.2296C30.029 43.7958 29.4912 44.2371 28.8621 44.4977C28.2329 44.7583 27.5407 44.8265 26.8728 44.6936C26.2049 44.5608 25.5914 44.2329 25.1099 43.7513C24.6284 43.2698 24.3004 42.6563 24.1676 41.9884C24.0347 41.3205 24.1029 40.6283 24.3635 39.9991C24.6241 39.37 25.0654 38.8323 25.6316 38.4539C26.1978 38.0756 26.8635 37.8737 27.5445 37.8737C28.4576 37.8737 29.3334 38.2364 29.9791 38.8821C30.6248 39.5278 30.9875 40.4036 30.9875 41.3167Z" fill="#89A831"/>
</svg>
